<svg width="64" height="64" viewBox="0 0 64 64" fill="none" xmlns="http://www.w3.org/2000/svg">
<rect width="64" height="64" fill="#2B7FFF"/>
<path d="M16 32.4C16 30.8225 17.2788 29.5437 18.8563 29.5437H43.1739C46.3289 29.5437 48.8865 32.1013 48.8865 35.2563V39.7723C48.8865 42.9272 46.3289 45.4849 43.1739 45.4849H21.7126C18.5576 45.4849 16 42.9272 16 39.7723V32.4Z" fill="#EFF6FF"/>
<path d="M16 24.6066C16 21.5102 18.5102 19 21.6066 19H34.9955C38.0919 19 40.6021 21.5102 40.6021 24.6066C40.6021 26.1548 39.347 27.4099 37.7988 27.4099H18.8033C17.2551 27.4099 16 26.1548 16 24.6066Z" fill="#EFF6FF"/>
</svg>
