<svg width="380" height="140" viewBox="0 0 380 140" fill="none" xmlns="http://www.w3.org/2000/svg">
<path d="M36.0101 24C38.9077 24 41.4346 24.5667 43.5909 25.7C45.7473 26.8333 47.4151 28.45 48.5943 30.55C49.7736 32.65 50.3632 35.1 50.3632 37.9C50.3632 40.6333 49.8072 43.05 48.6954 45.15C47.5835 47.2167 46.0168 48.8333 43.9953 50C41.9737 51.1333 39.6489 51.7 37.0209 51.7C33.5505 51.7 30.8383 50.6167 28.8841 48.45V61H21V37.95C21 35.1833 21.6233 32.75 22.8699 30.65C24.1166 28.55 25.8686 26.9167 28.126 25.75C30.3834 24.5833 33.0114 24 36.0101 24ZM35.6563 45.3C37.7116 45.3 39.3794 44.6167 40.6597 43.25C41.94 41.8833 42.5802 40.1 42.5802 37.9C42.5802 35.6667 41.94 33.8667 40.6597 32.5C39.3794 31.1 37.7116 30.4 35.6563 30.4C33.6011 30.4 31.9333 31.0833 30.653 32.45C29.4063 33.8167 28.783 35.6167 28.783 37.85C28.783 40.0833 29.4063 41.8833 30.653 43.25C31.8996 44.6167 33.5674 45.3 35.6563 45.3Z" fill="#FAFAFA"/>
<path d="M83.3612 24.4V51.3H75.8309V48.2C73.8767 50.5333 71.0465 51.7 67.3403 51.7C64.7797 51.7 62.4549 51.1333 60.366 50C58.3107 48.8667 56.6935 47.25 55.5142 45.15C54.335 43.05 53.7453 40.6167 53.7453 37.85C53.7453 35.0833 54.335 32.65 55.5142 30.55C56.6935 28.45 58.3107 26.8333 60.366 25.7C62.4549 24.5667 64.7797 24 67.3403 24C70.8107 24 73.5229 25.0833 75.4771 27.25V24.4H83.3612ZM68.7049 45.3C70.6928 45.3 72.3437 44.6333 73.6577 43.3C74.9717 41.9333 75.6287 40.1167 75.6287 37.85C75.6287 35.5833 74.9717 33.7833 73.6577 32.45C72.3437 31.0833 70.6928 30.4 68.7049 30.4C66.6833 30.4 65.0155 31.0833 63.7015 32.45C62.3875 33.7833 61.7305 35.5833 61.7305 37.85C61.7305 40.1167 62.3875 41.9333 63.7015 43.3C65.0155 44.6333 66.6833 45.3 68.7049 45.3Z" fill="#FAFAFA"/>
<path d="M103.75 51.7C100.853 51.7 98.2414 51.1167 95.9166 49.95C93.6255 48.75 91.8229 47.1 90.5089 45C89.2286 42.9 88.5884 40.5167 88.5884 37.85C88.5884 35.1833 89.2286 32.8 90.5089 30.7C91.8229 28.6 93.6255 26.9667 95.9166 25.8C98.2414 24.6 100.853 24 103.75 24C106.614 24 109.107 24.6 111.23 25.8C113.386 26.9667 114.953 28.65 115.93 30.85L109.815 34.1C108.4 31.6333 106.361 30.4 103.7 30.4C101.644 30.4 99.9429 31.0667 98.5952 32.4C97.2475 33.7333 96.5736 35.55 96.5736 37.85C96.5736 40.15 97.2475 41.9667 98.5952 43.3C99.9429 44.6333 101.644 45.3 103.7 45.3C106.395 45.3 108.433 44.0667 109.815 41.6L115.93 44.9C114.953 47.0333 113.386 48.7 111.23 49.9C109.107 51.1 106.614 51.7 103.75 51.7Z" fill="#FAFAFA"/>
<path d="M147.759 24.4V51.3H139.875V30.8H128.555V51.3H120.721V24.4H147.759Z" fill="#FAFAFA"/>
<path d="M182.155 24.4V51.3H174.624V48.15C173.614 49.3167 172.367 50.2 170.885 50.8C169.436 51.4 167.886 51.7 166.235 51.7C162.664 51.7 159.816 50.6833 157.694 48.65C155.605 46.6167 154.56 43.6 154.56 39.6V24.4H162.445V38.45C162.445 42.7833 164.281 44.95 167.953 44.95C169.874 44.95 171.407 44.35 172.552 43.15C173.698 41.9167 174.271 40.1 174.271 37.7V24.4H182.155Z" fill="#FAFAFA"/>
<path d="M202.607 51.7C199.71 51.7 197.099 51.1167 194.774 49.95C192.483 48.75 190.68 47.1 189.366 45C188.086 42.9 187.446 40.5167 187.446 37.85C187.446 35.1833 188.086 32.8 189.366 30.7C190.68 28.6 192.483 26.9667 194.774 25.8C197.099 24.6 199.71 24 202.607 24C205.471 24 207.964 24.6 210.087 25.8C212.243 26.9667 213.81 28.65 214.787 30.85L208.672 34.1C207.257 31.6333 205.218 30.4 202.557 30.4C200.501 30.4 198.8 31.0667 197.452 32.4C196.105 33.7333 195.431 35.55 195.431 37.85C195.431 40.15 196.105 41.9667 197.452 43.3C198.8 44.6333 200.501 45.3 202.557 45.3C205.252 45.3 207.291 44.0667 208.672 41.6L214.787 44.9C213.81 47.0333 212.243 48.7 210.087 49.9C207.964 51.1 205.471 51.7 202.607 51.7Z" fill="#FAFAFA"/>
<path d="M246.675 24.4V51.3H239.145V48.2C237.191 50.5333 234.361 51.7 230.654 51.7C228.094 51.7 225.769 51.1333 223.68 50C221.625 48.8667 220.008 47.25 218.828 45.15C217.649 43.05 217.059 40.6167 217.059 37.85C217.059 35.0833 217.649 32.65 218.828 30.55C220.008 28.45 221.625 26.8333 223.68 25.7C225.769 24.5667 228.094 24 230.654 24C234.125 24 236.837 25.0833 238.791 27.25V24.4H246.675ZM232.019 45.3C234.007 45.3 235.658 44.6333 236.972 43.3C238.286 41.9333 238.943 40.1167 238.943 37.85C238.943 35.5833 238.286 33.7833 236.972 32.45C235.658 31.0833 234.007 30.4 232.019 30.4C229.997 30.4 228.33 31.0833 227.016 32.45C225.702 33.7833 225.045 35.5833 225.045 37.85C225.045 40.1167 225.702 41.9333 227.016 43.3C228.33 44.6333 229.997 45.3 232.019 45.3Z" fill="#FAFAFA"/>
<path d="M254.126 24.4H261.96V34.9H273.786V24.4H281.67V51.3H273.786V41.25H261.96V51.3H254.126V24.4Z" fill="#FAFAFA"/>
<path d="M316.054 24.4V51.3H308.523V48.15C307.512 49.3167 306.266 50.2 304.783 50.8C303.335 51.4 301.785 51.7 300.134 51.7C296.562 51.7 293.715 50.6833 291.593 48.65C289.504 46.6167 288.459 43.6 288.459 39.6V24.4H296.343V38.45C296.343 42.7833 298.18 44.95 301.852 44.95C303.773 44.95 305.306 44.35 306.451 43.15C307.597 41.9167 308.169 40.1 308.169 37.7V24.4H316.054Z" fill="#FAFAFA"/>
<path d="M337.113 45.45C338.528 45.45 339.774 45.25 340.852 44.85C341.964 44.4167 342.992 43.75 343.935 42.85L348.13 47.35C345.569 50.25 341.829 51.7 336.91 51.7C333.844 51.7 331.132 51.1167 328.774 49.95C326.415 48.75 324.596 47.1 323.315 45C322.035 42.9 321.395 40.5167 321.395 37.85C321.395 35.2167 322.018 32.85 323.265 30.75C324.545 28.6167 326.28 26.9667 328.47 25.8C330.694 24.6 333.187 24 335.95 24C338.544 24 340.903 24.55 343.026 25.65C345.148 26.7167 346.833 28.2833 348.079 30.35C349.36 32.3833 350 34.8 350 37.6L329.885 41.45C330.458 42.7833 331.351 43.7833 332.564 44.45C333.811 45.1167 335.327 45.45 337.113 45.45ZM335.95 29.9C333.962 29.9 332.345 30.5333 331.098 31.8C329.852 33.0667 329.195 34.8167 329.127 37.05L342.369 34.5C341.998 33.1 341.24 31.9833 340.094 31.15C338.949 30.3167 337.567 29.9 335.95 29.9Z" fill="#FAFAFA"/>
<path d="M47.5124 109.9V93.8L39.382 107.3H36.049L28.1205 93.75V109.9H21V83H29.2315L37.9175 98.55L47.1589 83H54.5319L54.6329 109.9H47.5124Z" fill="#FAFAFA"/>
<path d="M83.9446 89.4H70.0066V109.9H62.1791V83H83.9446V89.4Z" fill="#FAFAFA"/>
<path d="M112.205 83V109.9H104.327V89.4H95.7418L95.4893 94.15C95.3547 97.6833 95.018 100.617 94.4793 102.95C93.9407 105.283 93.0653 107.117 91.8533 108.45C90.6413 109.783 88.958 110.45 86.8033 110.45C85.6587 110.45 84.2952 110.25 82.7128 109.85L83.1168 103.45C83.6555 103.517 84.0427 103.55 84.2783 103.55C85.4567 103.55 86.332 103.133 86.9043 102.3C87.5103 101.433 87.9143 100.35 88.1163 99.05C88.3183 97.7167 88.4698 95.9667 88.5708 93.8L88.9748 83H112.205Z" fill="#FAFAFA"/>
<path d="M147 83V105.4C147 110.333 145.738 114 143.213 116.4C140.688 118.8 137.018 120 132.204 120C129.645 120 127.221 119.683 124.932 119.05C122.676 118.417 120.774 117.5 119.225 116.3L122.356 110.7C123.501 111.633 124.898 112.367 126.548 112.9C128.197 113.433 129.864 113.7 131.547 113.7C134.173 113.7 136.092 113.1 137.304 111.9C138.516 110.7 139.122 108.867 139.122 106.4V105.5C138.112 106.5 136.917 107.267 135.537 107.8C134.156 108.333 132.675 108.6 131.093 108.6C127.524 108.6 124.696 107.6 122.609 105.6C120.521 103.567 119.478 100.533 119.478 96.5V83H127.356V95.35C127.356 99.7167 129.19 101.9 132.86 101.9C134.745 101.9 136.26 101.3 137.405 100.1C138.55 98.8667 139.122 97.05 139.122 94.65V83H147Z" fill="#FAFAFA"/>
<rect x="157" y="65" width="215" height="61" rx="26" fill="#3F3F46"/>
<path d="M195.756 88.568V107.792H191.472V105.344C190.752 106.208 189.852 106.88 188.772 107.36C187.692 107.816 186.528 108.044 185.28 108.044C182.712 108.044 180.684 107.336 179.196 105.92C177.732 104.48 177 102.356 177 99.548V88.568H181.5V98.936C181.5 100.664 181.884 101.96 182.652 102.824C183.444 103.664 184.56 104.084 186 104.084C187.608 104.084 188.88 103.592 189.816 102.608C190.776 101.6 191.256 100.16 191.256 98.288V88.568H195.756Z" fill="#E4E4E7"/>
<path d="M212.556 88.352C214.98 88.352 216.924 89.06 218.388 90.476C219.852 91.892 220.584 93.992 220.584 96.776V107.792H216.084V97.352C216.084 95.672 215.688 94.412 214.896 93.572C214.104 92.708 212.976 92.276 211.512 92.276C209.856 92.276 208.548 92.78 207.588 93.788C206.628 94.772 206.148 96.2 206.148 98.072V107.792H201.648V88.568H205.932V91.052C206.676 90.164 207.612 89.492 208.74 89.036C209.868 88.58 211.14 88.352 212.556 88.352Z" fill="#E4E4E7"/>
<path d="M235.108 108.044C233.164 108.044 231.412 107.624 229.852 106.784C228.292 105.944 227.068 104.78 226.18 103.292C225.316 101.78 224.884 100.076 224.884 98.18C224.884 96.284 225.316 94.592 226.18 93.104C227.068 91.616 228.292 90.452 229.852 89.612C231.412 88.772 233.164 88.352 235.108 88.352C237.076 88.352 238.84 88.772 240.4 89.612C241.96 90.452 243.172 91.616 244.036 93.104C244.924 94.592 245.368 96.284 245.368 98.18C245.368 100.076 244.924 101.78 244.036 103.292C243.172 104.78 241.96 105.944 240.4 106.784C238.84 107.624 237.076 108.044 235.108 108.044ZM235.108 104.192C236.764 104.192 238.132 103.64 239.212 102.536C240.292 101.432 240.832 99.98 240.832 98.18C240.832 96.38 240.292 94.928 239.212 93.824C238.132 92.72 236.764 92.168 235.108 92.168C233.452 92.168 232.084 92.72 231.004 93.824C229.948 94.928 229.42 96.38 229.42 98.18C229.42 99.98 229.948 101.432 231.004 102.536C232.084 103.64 233.452 104.192 235.108 104.192Z" fill="#E4E4E7"/>
<path d="M256.907 84.464C255.011 84.464 254.063 85.496 254.063 87.56V88.712H259.355V92.312H254.171V107.792H249.671V87.488C249.671 85.448 250.271 83.828 251.471 82.628C252.671 81.428 254.375 80.828 256.583 80.828C258.287 80.828 259.631 81.176 260.615 81.872L259.355 85.256C258.635 84.728 257.819 84.464 256.907 84.464Z" fill="#E4E4E7"/>
<path d="M269.599 84.464C267.703 84.464 266.755 85.496 266.755 87.56V88.712H272.047V92.312H266.863V107.792H262.363V87.488C262.363 85.448 262.963 83.828 264.163 82.628C265.363 81.428 267.067 80.828 269.275 80.828C270.979 80.828 272.323 81.176 273.307 81.872L272.047 85.256C271.327 84.728 270.511 84.464 269.599 84.464ZM277.951 88.568H282.451V107.792H277.951V88.568ZM280.219 85.4C279.403 85.4 278.719 85.148 278.167 84.644C277.615 84.116 277.339 83.468 277.339 82.7C277.339 81.932 277.615 81.296 278.167 80.792C278.719 80.264 279.403 80 280.219 80C281.035 80 281.719 80.252 282.271 80.756C282.823 81.236 283.099 81.848 283.099 82.592C283.099 83.384 282.823 84.056 282.271 84.608C281.743 85.136 281.059 85.4 280.219 85.4Z" fill="#E4E4E7"/>
<path d="M297.163 108.044C295.171 108.044 293.383 107.624 291.799 106.784C290.215 105.944 288.979 104.78 288.091 103.292C287.203 101.78 286.759 100.076 286.759 98.18C286.759 96.284 287.203 94.592 288.091 93.104C288.979 91.616 290.203 90.452 291.763 89.612C293.347 88.772 295.147 88.352 297.163 88.352C299.059 88.352 300.715 88.736 302.131 89.504C303.571 90.272 304.651 91.376 305.371 92.816L301.915 94.832C301.363 93.944 300.667 93.284 299.827 92.852C299.011 92.396 298.111 92.168 297.127 92.168C295.447 92.168 294.055 92.72 292.951 93.824C291.847 94.904 291.295 96.356 291.295 98.18C291.295 100.004 291.835 101.468 292.915 102.572C294.019 103.652 295.423 104.192 297.127 104.192C298.111 104.192 299.011 103.976 299.827 103.544C300.667 103.088 301.363 102.416 301.915 101.528L305.371 103.544C304.627 104.984 303.535 106.1 302.095 106.892C300.679 107.66 299.035 108.044 297.163 108.044Z" fill="#E4E4E7"/>
<path d="M309.261 88.568H313.761V107.792H309.261V88.568ZM311.529 85.4C310.713 85.4 310.029 85.148 309.477 84.644C308.925 84.116 308.649 83.468 308.649 82.7C308.649 81.932 308.925 81.296 309.477 80.792C310.029 80.264 310.713 80 311.529 80C312.345 80 313.029 80.252 313.581 80.756C314.133 81.236 314.409 81.848 314.409 82.592C314.409 83.384 314.133 84.056 313.581 84.608C313.053 85.136 312.369 85.4 311.529 85.4Z" fill="#E4E4E7"/>
<path d="M338.459 88.568V107.792H334.175V105.308C333.431 106.22 332.507 106.904 331.403 107.36C330.323 107.816 329.123 108.044 327.803 108.044C325.931 108.044 324.251 107.636 322.763 106.82C321.299 106.004 320.147 104.852 319.307 103.364C318.491 101.876 318.083 100.148 318.083 98.18C318.083 96.212 318.491 94.496 319.307 93.032C320.147 91.544 321.299 90.392 322.763 89.576C324.251 88.76 325.931 88.352 327.803 88.352C329.051 88.352 330.191 88.568 331.223 89C332.279 89.432 333.191 90.068 333.959 90.908V88.568H338.459ZM328.307 104.192C329.963 104.192 331.331 103.64 332.411 102.536C333.491 101.432 334.031 99.98 334.031 98.18C334.031 96.38 333.491 94.928 332.411 93.824C331.331 92.72 329.963 92.168 328.307 92.168C326.651 92.168 325.283 92.72 324.203 93.824C323.147 94.928 322.619 96.38 322.619 98.18C322.619 99.98 323.147 101.432 324.203 102.536C325.283 103.64 326.651 104.192 328.307 104.192Z" fill="#E4E4E7"/>
<path d="M350.683 108.044C348.691 108.044 347.131 107.504 346.003 106.424C344.899 105.32 344.347 103.772 344.347 101.78V81.08H348.847V101.456C348.847 103.376 349.747 104.336 351.547 104.336C352.147 104.336 352.687 104.216 353.167 103.976L353.383 107.576C352.543 107.888 351.643 108.044 350.683 108.044Z" fill="#E4E4E7"/>
</svg>
