<svg width="380" height="140" viewBox="0 0 380 140" fill="none" xmlns="http://www.w3.org/2000/svg">
<path d="M36.0101 24C38.9077 24 41.4346 24.5667 43.5909 25.7C45.7473 26.8333 47.4151 28.45 48.5943 30.55C49.7736 32.65 50.3632 35.1 50.3632 37.9C50.3632 40.6333 49.8072 43.05 48.6954 45.15C47.5835 47.2167 46.0168 48.8333 43.9953 50C41.9737 51.1333 39.6489 51.7 37.0209 51.7C33.5505 51.7 30.8383 50.6167 28.8841 48.45V61H21V37.95C21 35.1833 21.6233 32.75 22.8699 30.65C24.1166 28.55 25.8686 26.9167 28.126 25.75C30.3834 24.5833 33.0114 24 36.0101 24ZM35.6563 45.3C37.7116 45.3 39.3794 44.6167 40.6597 43.25C41.94 41.8833 42.5802 40.1 42.5802 37.9C42.5802 35.6667 41.94 33.8667 40.6597 32.5C39.3794 31.1 37.7116 30.4 35.6563 30.4C33.6011 30.4 31.9333 31.0833 30.653 32.45C29.4063 33.8167 28.783 35.6167 28.783 37.85C28.783 40.0833 29.4063 41.8833 30.653 43.25C31.8996 44.6167 33.5674 45.3 35.6563 45.3Z" fill="#3F3F46"/>
<path d="M83.3612 24.4V51.3H75.8309V48.2C73.8767 50.5333 71.0465 51.7 67.3403 51.7C64.7797 51.7 62.4549 51.1333 60.366 50C58.3107 48.8667 56.6935 47.25 55.5142 45.15C54.335 43.05 53.7453 40.6167 53.7453 37.85C53.7453 35.0833 54.335 32.65 55.5142 30.55C56.6935 28.45 58.3107 26.8333 60.366 25.7C62.4549 24.5667 64.7797 24 67.3403 24C70.8107 24 73.5229 25.0833 75.4771 27.25V24.4H83.3612ZM68.7049 45.3C70.6928 45.3 72.3437 44.6333 73.6577 43.3C74.9717 41.9333 75.6287 40.1167 75.6287 37.85C75.6287 35.5833 74.9717 33.7833 73.6577 32.45C72.3437 31.0833 70.6928 30.4 68.7049 30.4C66.6833 30.4 65.0155 31.0833 63.7015 32.45C62.3875 33.7833 61.7305 35.5833 61.7305 37.85C61.7305 40.1167 62.3875 41.9333 63.7015 43.3C65.0155 44.6333 66.6833 45.3 68.7049 45.3Z" fill="#3F3F46"/>
<path d="M103.75 51.7C100.853 51.7 98.2414 51.1167 95.9166 49.95C93.6255 48.75 91.8229 47.1 90.5089 45C89.2286 42.9 88.5884 40.5167 88.5884 37.85C88.5884 35.1833 89.2286 32.8 90.5089 30.7C91.8229 28.6 93.6255 26.9667 95.9166 25.8C98.2414 24.6 100.853 24 103.75 24C106.614 24 109.107 24.6 111.23 25.8C113.386 26.9667 114.953 28.65 115.93 30.85L109.815 34.1C108.4 31.6333 106.361 30.4 103.7 30.4C101.644 30.4 99.9429 31.0667 98.5952 32.4C97.2475 33.7333 96.5736 35.55 96.5736 37.85C96.5736 40.15 97.2475 41.9667 98.5952 43.3C99.9429 44.6333 101.644 45.3 103.7 45.3C106.395 45.3 108.433 44.0667 109.815 41.6L115.93 44.9C114.953 47.0333 113.386 48.7 111.23 49.9C109.107 51.1 106.614 51.7 103.75 51.7Z" fill="#3F3F46"/>
<path d="M147.759 24.4V51.3H139.875V30.8H128.555V51.3H120.721V24.4H147.759Z" fill="#3F3F46"/>
<path d="M182.155 24.4V51.3H174.624V48.15C173.614 49.3167 172.367 50.2 170.885 50.8C169.436 51.4 167.886 51.7 166.235 51.7C162.664 51.7 159.816 50.6833 157.694 48.65C155.605 46.6167 154.56 43.6 154.56 39.6V24.4H162.445V38.45C162.445 42.7833 164.281 44.95 167.953 44.95C169.874 44.95 171.407 44.35 172.552 43.15C173.698 41.9167 174.271 40.1 174.271 37.7V24.4H182.155Z" fill="#3F3F46"/>
<path d="M202.607 51.7C199.71 51.7 197.099 51.1167 194.774 49.95C192.483 48.75 190.68 47.1 189.366 45C188.086 42.9 187.446 40.5167 187.446 37.85C187.446 35.1833 188.086 32.8 189.366 30.7C190.68 28.6 192.483 26.9667 194.774 25.8C197.099 24.6 199.71 24 202.607 24C205.471 24 207.964 24.6 210.087 25.8C212.243 26.9667 213.81 28.65 214.787 30.85L208.672 34.1C207.257 31.6333 205.218 30.4 202.557 30.4C200.501 30.4 198.8 31.0667 197.452 32.4C196.105 33.7333 195.431 35.55 195.431 37.85C195.431 40.15 196.105 41.9667 197.452 43.3C198.8 44.6333 200.501 45.3 202.557 45.3C205.252 45.3 207.291 44.0667 208.672 41.6L214.787 44.9C213.81 47.0333 212.243 48.7 210.087 49.9C207.964 51.1 205.471 51.7 202.607 51.7Z" fill="#3F3F46"/>
<path d="M246.675 24.4V51.3H239.145V48.2C237.191 50.5333 234.361 51.7 230.654 51.7C228.094 51.7 225.769 51.1333 223.68 50C221.625 48.8667 220.008 47.25 218.828 45.15C217.649 43.05 217.059 40.6167 217.059 37.85C217.059 35.0833 217.649 32.65 218.828 30.55C220.008 28.45 221.625 26.8333 223.68 25.7C225.769 24.5667 228.094 24 230.654 24C234.125 24 236.837 25.0833 238.791 27.25V24.4H246.675ZM232.019 45.3C234.007 45.3 235.658 44.6333 236.972 43.3C238.286 41.9333 238.943 40.1167 238.943 37.85C238.943 35.5833 238.286 33.7833 236.972 32.45C235.658 31.0833 234.007 30.4 232.019 30.4C229.997 30.4 228.33 31.0833 227.016 32.45C225.702 33.7833 225.045 35.5833 225.045 37.85C225.045 40.1167 225.702 41.9333 227.016 43.3C228.33 44.6333 229.997 45.3 232.019 45.3Z" fill="#3F3F46"/>
<path d="M254.126 24.4H261.96V34.9H273.786V24.4H281.67V51.3H273.786V41.25H261.96V51.3H254.126V24.4Z" fill="#3F3F46"/>
<path d="M316.054 24.4V51.3H308.523V48.15C307.512 49.3167 306.266 50.2 304.783 50.8C303.335 51.4 301.785 51.7 300.134 51.7C296.562 51.7 293.715 50.6833 291.593 48.65C289.504 46.6167 288.459 43.6 288.459 39.6V24.4H296.343V38.45C296.343 42.7833 298.18 44.95 301.852 44.95C303.773 44.95 305.306 44.35 306.451 43.15C307.597 41.9167 308.169 40.1 308.169 37.7V24.4H316.054Z" fill="#3F3F46"/>
<path d="M337.113 45.45C338.528 45.45 339.774 45.25 340.852 44.85C341.964 44.4167 342.992 43.75 343.935 42.85L348.13 47.35C345.569 50.25 341.829 51.7 336.91 51.7C333.844 51.7 331.132 51.1167 328.774 49.95C326.415 48.75 324.596 47.1 323.315 45C322.035 42.9 321.395 40.5167 321.395 37.85C321.395 35.2167 322.018 32.85 323.265 30.75C324.545 28.6167 326.28 26.9667 328.47 25.8C330.694 24.6 333.187 24 335.95 24C338.544 24 340.903 24.55 343.026 25.65C345.148 26.7167 346.833 28.2833 348.079 30.35C349.36 32.3833 350 34.8 350 37.6L329.885 41.45C330.458 42.7833 331.351 43.7833 332.564 44.45C333.811 45.1167 335.327 45.45 337.113 45.45ZM335.95 29.9C333.962 29.9 332.345 30.5333 331.098 31.8C329.852 33.0667 329.195 34.8167 329.127 37.05L342.369 34.5C341.998 33.1 341.24 31.9833 340.094 31.15C338.949 30.3167 337.567 29.9 335.95 29.9Z" fill="#3F3F46"/>
<path d="M47.5124 109.9V93.8L39.382 107.3H36.049L28.1205 93.75V109.9H21V83H29.2315L37.9175 98.55L47.1589 83H54.5319L54.6329 109.9H47.5124Z" fill="#3F3F46"/>
<path d="M83.9446 89.4H70.0066V109.9H62.1791V83H83.9446V89.4Z" fill="#3F3F46"/>
<path d="M112.205 83V109.9H104.327V89.4H95.7418L95.4893 94.15C95.3547 97.6833 95.018 100.617 94.4793 102.95C93.9407 105.283 93.0653 107.117 91.8533 108.45C90.6413 109.783 88.958 110.45 86.8033 110.45C85.6587 110.45 84.2952 110.25 82.7128 109.85L83.1168 103.45C83.6555 103.517 84.0427 103.55 84.2783 103.55C85.4567 103.55 86.332 103.133 86.9043 102.3C87.5103 101.433 87.9143 100.35 88.1163 99.05C88.3183 97.7167 88.4698 95.9667 88.5708 93.8L88.9748 83H112.205Z" fill="#3F3F46"/>
<path d="M147 83V105.4C147 110.333 145.738 114 143.213 116.4C140.688 118.8 137.018 120 132.204 120C129.645 120 127.221 119.683 124.932 119.05C122.676 118.417 120.774 117.5 119.225 116.3L122.356 110.7C123.501 111.633 124.898 112.367 126.548 112.9C128.197 113.433 129.864 113.7 131.547 113.7C134.173 113.7 136.092 113.1 137.304 111.9C138.516 110.7 139.122 108.867 139.122 106.4V105.5C138.112 106.5 136.917 107.267 135.537 107.8C134.156 108.333 132.675 108.6 131.093 108.6C127.524 108.6 124.696 107.6 122.609 105.6C120.521 103.567 119.478 100.533 119.478 96.5V83H127.356V95.35C127.356 99.7167 129.19 101.9 132.86 101.9C134.745 101.9 136.26 101.3 137.405 100.1C138.55 98.8667 139.122 97.05 139.122 94.65V83H147Z" fill="#3F3F46"/>
<rect x="157" y="65" width="215" height="61" rx="26" fill="#BEDBFF"/>
<path d="M194.756 88.568V107.792H190.472V105.344C189.752 106.208 188.852 106.88 187.772 107.36C186.692 107.816 185.528 108.044 184.28 108.044C181.712 108.044 179.684 107.336 178.196 105.92C176.732 104.48 176 102.356 176 99.548V88.568H180.5V98.936C180.5 100.664 180.884 101.96 181.652 102.824C182.444 103.664 183.56 104.084 185 104.084C186.608 104.084 187.88 103.592 188.816 102.608C189.776 101.6 190.256 100.16 190.256 98.288V88.568H194.756Z" fill="#155DFC"/>
<path d="M211.556 88.352C213.98 88.352 215.924 89.06 217.388 90.476C218.852 91.892 219.584 93.992 219.584 96.776V107.792H215.084V97.352C215.084 95.672 214.688 94.412 213.896 93.572C213.104 92.708 211.976 92.276 210.512 92.276C208.856 92.276 207.548 92.78 206.588 93.788C205.628 94.772 205.148 96.2 205.148 98.072V107.792H200.648V88.568H204.932V91.052C205.676 90.164 206.612 89.492 207.74 89.036C208.868 88.58 210.14 88.352 211.556 88.352Z" fill="#155DFC"/>
<path d="M234.108 108.044C232.164 108.044 230.412 107.624 228.852 106.784C227.292 105.944 226.068 104.78 225.18 103.292C224.316 101.78 223.884 100.076 223.884 98.18C223.884 96.284 224.316 94.592 225.18 93.104C226.068 91.616 227.292 90.452 228.852 89.612C230.412 88.772 232.164 88.352 234.108 88.352C236.076 88.352 237.84 88.772 239.4 89.612C240.96 90.452 242.172 91.616 243.036 93.104C243.924 94.592 244.368 96.284 244.368 98.18C244.368 100.076 243.924 101.78 243.036 103.292C242.172 104.78 240.96 105.944 239.4 106.784C237.84 107.624 236.076 108.044 234.108 108.044ZM234.108 104.192C235.764 104.192 237.132 103.64 238.212 102.536C239.292 101.432 239.832 99.98 239.832 98.18C239.832 96.38 239.292 94.928 238.212 93.824C237.132 92.72 235.764 92.168 234.108 92.168C232.452 92.168 231.084 92.72 230.004 93.824C228.948 94.928 228.42 96.38 228.42 98.18C228.42 99.98 228.948 101.432 230.004 102.536C231.084 103.64 232.452 104.192 234.108 104.192Z" fill="#155DFC"/>
<path d="M255.907 84.464C254.011 84.464 253.063 85.496 253.063 87.56V88.712H258.355V92.312H253.171V107.792H248.671V87.488C248.671 85.448 249.271 83.828 250.471 82.628C251.671 81.428 253.375 80.828 255.583 80.828C257.287 80.828 258.631 81.176 259.615 81.872L258.355 85.256C257.635 84.728 256.819 84.464 255.907 84.464Z" fill="#155DFC"/>
<path d="M268.599 84.464C266.703 84.464 265.755 85.496 265.755 87.56V88.712H271.047V92.312H265.863V107.792H261.363V87.488C261.363 85.448 261.963 83.828 263.163 82.628C264.363 81.428 266.067 80.828 268.275 80.828C269.979 80.828 271.323 81.176 272.307 81.872L271.047 85.256C270.327 84.728 269.511 84.464 268.599 84.464ZM276.951 88.568H281.451V107.792H276.951V88.568ZM279.219 85.4C278.403 85.4 277.719 85.148 277.167 84.644C276.615 84.116 276.339 83.468 276.339 82.7C276.339 81.932 276.615 81.296 277.167 80.792C277.719 80.264 278.403 80 279.219 80C280.035 80 280.719 80.252 281.271 80.756C281.823 81.236 282.099 81.848 282.099 82.592C282.099 83.384 281.823 84.056 281.271 84.608C280.743 85.136 280.059 85.4 279.219 85.4Z" fill="#155DFC"/>
<path d="M296.163 108.044C294.171 108.044 292.383 107.624 290.799 106.784C289.215 105.944 287.979 104.78 287.091 103.292C286.203 101.78 285.759 100.076 285.759 98.18C285.759 96.284 286.203 94.592 287.091 93.104C287.979 91.616 289.203 90.452 290.763 89.612C292.347 88.772 294.147 88.352 296.163 88.352C298.059 88.352 299.715 88.736 301.131 89.504C302.571 90.272 303.651 91.376 304.371 92.816L300.915 94.832C300.363 93.944 299.667 93.284 298.827 92.852C298.011 92.396 297.111 92.168 296.127 92.168C294.447 92.168 293.055 92.72 291.951 93.824C290.847 94.904 290.295 96.356 290.295 98.18C290.295 100.004 290.835 101.468 291.915 102.572C293.019 103.652 294.423 104.192 296.127 104.192C297.111 104.192 298.011 103.976 298.827 103.544C299.667 103.088 300.363 102.416 300.915 101.528L304.371 103.544C303.627 104.984 302.535 106.1 301.095 106.892C299.679 107.66 298.035 108.044 296.163 108.044Z" fill="#155DFC"/>
<path d="M308.261 88.568H312.761V107.792H308.261V88.568ZM310.529 85.4C309.713 85.4 309.029 85.148 308.477 84.644C307.925 84.116 307.649 83.468 307.649 82.7C307.649 81.932 307.925 81.296 308.477 80.792C309.029 80.264 309.713 80 310.529 80C311.345 80 312.029 80.252 312.581 80.756C313.133 81.236 313.409 81.848 313.409 82.592C313.409 83.384 313.133 84.056 312.581 84.608C312.053 85.136 311.369 85.4 310.529 85.4Z" fill="#155DFC"/>
<path d="M337.459 88.568V107.792H333.175V105.308C332.431 106.22 331.507 106.904 330.403 107.36C329.323 107.816 328.123 108.044 326.803 108.044C324.931 108.044 323.251 107.636 321.763 106.82C320.299 106.004 319.147 104.852 318.307 103.364C317.491 101.876 317.083 100.148 317.083 98.18C317.083 96.212 317.491 94.496 318.307 93.032C319.147 91.544 320.299 90.392 321.763 89.576C323.251 88.76 324.931 88.352 326.803 88.352C328.051 88.352 329.191 88.568 330.223 89C331.279 89.432 332.191 90.068 332.959 90.908V88.568H337.459ZM327.307 104.192C328.963 104.192 330.331 103.64 331.411 102.536C332.491 101.432 333.031 99.98 333.031 98.18C333.031 96.38 332.491 94.928 331.411 93.824C330.331 92.72 328.963 92.168 327.307 92.168C325.651 92.168 324.283 92.72 323.203 93.824C322.147 94.928 321.619 96.38 321.619 98.18C321.619 99.98 322.147 101.432 323.203 102.536C324.283 103.64 325.651 104.192 327.307 104.192Z" fill="#155DFC"/>
<path d="M349.683 108.044C347.691 108.044 346.131 107.504 345.003 106.424C343.899 105.32 343.347 103.772 343.347 101.78V81.08H347.847V101.456C347.847 103.376 348.747 104.336 350.547 104.336C351.147 104.336 351.687 104.216 352.167 103.976L352.383 107.576C351.543 107.888 350.643 108.044 349.683 108.044Z" fill="#155DFC"/>
</svg>
