<svg width="380" height="140" viewBox="0 0 380 140" fill="none" xmlns="http://www.w3.org/2000/svg">
<path d="M36.0101 24C38.9077 24 41.4346 24.5667 43.5909 25.7C45.7473 26.8333 47.4151 28.45 48.5943 30.55C49.7736 32.65 50.3632 35.1 50.3632 37.9C50.3632 40.6333 49.8072 43.05 48.6954 45.15C47.5835 47.2167 46.0168 48.8333 43.9953 50C41.9737 51.1333 39.6489 51.7 37.0209 51.7C33.5505 51.7 30.8383 50.6167 28.8841 48.45V61H21V37.95C21 35.1833 21.6233 32.75 22.8699 30.65C24.1166 28.55 25.8686 26.9167 28.126 25.75C30.3834 24.5833 33.0114 24 36.0101 24ZM35.6563 45.3C37.7116 45.3 39.3794 44.6167 40.6597 43.25C41.94 41.8833 42.5802 40.1 42.5802 37.9C42.5802 35.6667 41.94 33.8667 40.6597 32.5C39.3794 31.1 37.7116 30.4 35.6563 30.4C33.6011 30.4 31.9333 31.0833 30.653 32.45C29.4063 33.8167 28.783 35.6167 28.783 37.85C28.783 40.0833 29.4063 41.8833 30.653 43.25C31.8996 44.6167 33.5674 45.3 35.6563 45.3Z" fill="#FAFAFA"/>
<path d="M83.3612 24.4V51.3H75.8309V48.2C73.8767 50.5333 71.0465 51.7 67.3403 51.7C64.7797 51.7 62.4549 51.1333 60.366 50C58.3107 48.8667 56.6935 47.25 55.5142 45.15C54.335 43.05 53.7453 40.6167 53.7453 37.85C53.7453 35.0833 54.335 32.65 55.5142 30.55C56.6935 28.45 58.3107 26.8333 60.366 25.7C62.4549 24.5667 64.7797 24 67.3403 24C70.8107 24 73.5229 25.0833 75.4771 27.25V24.4H83.3612ZM68.7049 45.3C70.6928 45.3 72.3437 44.6333 73.6577 43.3C74.9717 41.9333 75.6287 40.1167 75.6287 37.85C75.6287 35.5833 74.9717 33.7833 73.6577 32.45C72.3437 31.0833 70.6928 30.4 68.7049 30.4C66.6833 30.4 65.0155 31.0833 63.7015 32.45C62.3875 33.7833 61.7305 35.5833 61.7305 37.85C61.7305 40.1167 62.3875 41.9333 63.7015 43.3C65.0155 44.6333 66.6833 45.3 68.7049 45.3Z" fill="#FAFAFA"/>
<path d="M103.75 51.7C100.853 51.7 98.2414 51.1167 95.9166 49.95C93.6255 48.75 91.8229 47.1 90.5089 45C89.2286 42.9 88.5884 40.5167 88.5884 37.85C88.5884 35.1833 89.2286 32.8 90.5089 30.7C91.8229 28.6 93.6255 26.9667 95.9166 25.8C98.2414 24.6 100.853 24 103.75 24C106.614 24 109.107 24.6 111.23 25.8C113.386 26.9667 114.953 28.65 115.93 30.85L109.815 34.1C108.4 31.6333 106.361 30.4 103.7 30.4C101.644 30.4 99.9429 31.0667 98.5952 32.4C97.2475 33.7333 96.5736 35.55 96.5736 37.85C96.5736 40.15 97.2475 41.9667 98.5952 43.3C99.9429 44.6333 101.644 45.3 103.7 45.3C106.395 45.3 108.433 44.0667 109.815 41.6L115.93 44.9C114.953 47.0333 113.386 48.7 111.23 49.9C109.107 51.1 106.614 51.7 103.75 51.7Z" fill="#FAFAFA"/>
<path d="M147.759 24.4V51.3H139.875V30.8H128.555V51.3H120.721V24.4H147.759Z" fill="#FAFAFA"/>
<path d="M182.155 24.4V51.3H174.624V48.15C173.614 49.3167 172.367 50.2 170.885 50.8C169.436 51.4 167.886 51.7 166.235 51.7C162.664 51.7 159.816 50.6833 157.694 48.65C155.605 46.6167 154.56 43.6 154.56 39.6V24.4H162.445V38.45C162.445 42.7833 164.281 44.95 167.953 44.95C169.874 44.95 171.407 44.35 172.552 43.15C173.698 41.9167 174.271 40.1 174.271 37.7V24.4H182.155Z" fill="#FAFAFA"/>
<path d="M202.607 51.7C199.71 51.7 197.099 51.1167 194.774 49.95C192.483 48.75 190.68 47.1 189.366 45C188.086 42.9 187.446 40.5167 187.446 37.85C187.446 35.1833 188.086 32.8 189.366 30.7C190.68 28.6 192.483 26.9667 194.774 25.8C197.099 24.6 199.71 24 202.607 24C205.471 24 207.964 24.6 210.087 25.8C212.243 26.9667 213.81 28.65 214.787 30.85L208.672 34.1C207.257 31.6333 205.218 30.4 202.557 30.4C200.501 30.4 198.8 31.0667 197.452 32.4C196.105 33.7333 195.431 35.55 195.431 37.85C195.431 40.15 196.105 41.9667 197.452 43.3C198.8 44.6333 200.501 45.3 202.557 45.3C205.252 45.3 207.291 44.0667 208.672 41.6L214.787 44.9C213.81 47.0333 212.243 48.7 210.087 49.9C207.964 51.1 205.471 51.7 202.607 51.7Z" fill="#FAFAFA"/>
<path d="M246.675 24.4V51.3H239.145V48.2C237.191 50.5333 234.361 51.7 230.654 51.7C228.094 51.7 225.769 51.1333 223.68 50C221.625 48.8667 220.008 47.25 218.828 45.15C217.649 43.05 217.059 40.6167 217.059 37.85C217.059 35.0833 217.649 32.65 218.828 30.55C220.008 28.45 221.625 26.8333 223.68 25.7C225.769 24.5667 228.094 24 230.654 24C234.125 24 236.837 25.0833 238.791 27.25V24.4H246.675ZM232.019 45.3C234.007 45.3 235.658 44.6333 236.972 43.3C238.286 41.9333 238.943 40.1167 238.943 37.85C238.943 35.5833 238.286 33.7833 236.972 32.45C235.658 31.0833 234.007 30.4 232.019 30.4C229.997 30.4 228.33 31.0833 227.016 32.45C225.702 33.7833 225.045 35.5833 225.045 37.85C225.045 40.1167 225.702 41.9333 227.016 43.3C228.33 44.6333 229.997 45.3 232.019 45.3Z" fill="#FAFAFA"/>
<path d="M254.126 24.4H261.96V34.9H273.786V24.4H281.67V51.3H273.786V41.25H261.96V51.3H254.126V24.4Z" fill="#FAFAFA"/>
<path d="M316.054 24.4V51.3H308.523V48.15C307.512 49.3167 306.266 50.2 304.783 50.8C303.335 51.4 301.785 51.7 300.134 51.7C296.562 51.7 293.715 50.6833 291.593 48.65C289.504 46.6167 288.459 43.6 288.459 39.6V24.4H296.343V38.45C296.343 42.7833 298.18 44.95 301.852 44.95C303.773 44.95 305.306 44.35 306.451 43.15C307.597 41.9167 308.169 40.1 308.169 37.7V24.4H316.054Z" fill="#FAFAFA"/>
<path d="M337.113 45.45C338.528 45.45 339.774 45.25 340.852 44.85C341.964 44.4167 342.992 43.75 343.935 42.85L348.13 47.35C345.569 50.25 341.829 51.7 336.91 51.7C333.844 51.7 331.132 51.1167 328.774 49.95C326.415 48.75 324.596 47.1 323.315 45C322.035 42.9 321.395 40.5167 321.395 37.85C321.395 35.2167 322.018 32.85 323.265 30.75C324.545 28.6167 326.28 26.9667 328.47 25.8C330.694 24.6 333.187 24 335.95 24C338.544 24 340.903 24.55 343.026 25.65C345.148 26.7167 346.833 28.2833 348.079 30.35C349.36 32.3833 350 34.8 350 37.6L329.885 41.45C330.458 42.7833 331.351 43.7833 332.564 44.45C333.811 45.1167 335.327 45.45 337.113 45.45ZM335.95 29.9C333.962 29.9 332.345 30.5333 331.098 31.8C329.852 33.0667 329.195 34.8167 329.127 37.05L342.369 34.5C341.998 33.1 341.24 31.9833 340.094 31.15C338.949 30.3167 337.567 29.9 335.95 29.9Z" fill="#FAFAFA"/>
<path d="M47.5124 109.9V93.8L39.382 107.3H36.049L28.1205 93.75V109.9H21V83H29.2315L37.9175 98.55L47.1589 83H54.5319L54.6329 109.9H47.5124Z" fill="#FAFAFA"/>
<path d="M83.9446 89.4H70.0066V109.9H62.1791V83H83.9446V89.4Z" fill="#FAFAFA"/>
<path d="M112.205 83V109.9H104.327V89.4H95.7418L95.4893 94.15C95.3547 97.6833 95.018 100.617 94.4793 102.95C93.9407 105.283 93.0653 107.117 91.8533 108.45C90.6413 109.783 88.958 110.45 86.8033 110.45C85.6587 110.45 84.2952 110.25 82.7128 109.85L83.1168 103.45C83.6555 103.517 84.0427 103.55 84.2783 103.55C85.4567 103.55 86.332 103.133 86.9043 102.3C87.5103 101.433 87.9143 100.35 88.1163 99.05C88.3183 97.7167 88.4698 95.9667 88.5708 93.8L88.9748 83H112.205Z" fill="#FAFAFA"/>
<path d="M147 83V105.4C147 110.333 145.738 114 143.213 116.4C140.688 118.8 137.018 120 132.204 120C129.645 120 127.221 119.683 124.932 119.05C122.676 118.417 120.774 117.5 119.225 116.3L122.356 110.7C123.501 111.633 124.898 112.367 126.548 112.9C128.197 113.433 129.864 113.7 131.547 113.7C134.173 113.7 136.092 113.1 137.304 111.9C138.516 110.7 139.122 108.867 139.122 106.4V105.5C138.112 106.5 136.917 107.267 135.537 107.8C134.156 108.333 132.675 108.6 131.093 108.6C127.524 108.6 124.696 107.6 122.609 105.6C120.521 103.567 119.478 100.533 119.478 96.5V83H127.356V95.35C127.356 99.7167 129.19 101.9 132.86 101.9C134.745 101.9 136.26 101.3 137.405 100.1C138.55 98.8667 139.122 97.05 139.122 94.65V83H147Z" fill="#FAFAFA"/>
<rect x="157" y="65" width="215" height="61" rx="26" fill="#3F3F46"/>
<path d="M189 86.0641H195.082V94.3654H204.263V86.0641H210.384V107.331H204.263V99.3857H195.082V107.331H189V86.0641Z" fill="#E4E4E7"/>
<path d="M226.759 102.706C227.858 102.706 228.826 102.548 229.663 102.232C230.526 101.889 231.324 101.362 232.056 100.651L235.313 104.208C233.325 106.501 230.421 107.647 226.602 107.647C224.222 107.647 222.116 107.186 220.285 106.264C218.454 105.315 217.041 104.011 216.047 102.35C215.053 100.69 214.556 98.8059 214.556 96.6976C214.556 94.6157 215.04 92.7447 216.008 91.0844C217.002 89.3978 218.349 88.0933 220.05 87.1709C221.776 86.2222 223.712 85.7479 225.857 85.7479C227.871 85.7479 229.702 86.1827 231.35 87.0524C232.998 87.8957 234.306 89.1343 235.274 90.7682C236.268 92.3757 236.765 94.2863 236.765 96.5L221.148 99.5438C221.593 100.598 222.286 101.389 223.228 101.916C224.196 102.443 225.373 102.706 226.759 102.706ZM225.857 90.4124C224.313 90.4124 223.058 90.9131 222.09 91.9145C221.122 92.916 220.612 94.2995 220.56 96.0652L230.84 94.0491C230.552 92.9423 229.964 92.0595 229.074 91.4006C228.185 90.7418 227.112 90.4124 225.857 90.4124Z" fill="#E4E4E7"/>
<path d="M250.884 107.647C248.661 107.647 246.66 107.186 244.881 106.264C243.129 105.315 241.755 104.011 240.761 102.35C239.767 100.69 239.27 98.8059 239.27 96.6976C239.27 94.5894 239.767 92.7051 240.761 91.0449C241.755 89.3846 243.129 88.0933 244.881 87.1709C246.66 86.2222 248.661 85.7479 250.884 85.7479C253.108 85.7479 255.096 86.2222 256.848 87.1709C258.601 88.0933 259.974 89.3846 260.968 91.0449C261.962 92.7051 262.459 94.5894 262.459 96.6976C262.459 98.8059 261.962 100.69 260.968 102.35C259.974 104.011 258.601 105.315 256.848 106.264C255.096 107.186 253.108 107.647 250.884 107.647ZM250.884 102.588C252.454 102.588 253.736 102.061 254.73 101.006C255.75 99.9259 256.26 98.4897 256.26 96.6976C256.26 94.9056 255.75 93.4826 254.73 92.4284C253.736 91.3479 252.454 90.8077 250.884 90.8077C249.315 90.8077 248.02 91.3479 247 92.4284C245.98 93.4826 245.47 94.9056 245.47 96.6976C245.47 98.4897 245.98 99.9259 247 101.006C248.02 102.061 249.315 102.588 250.884 102.588Z" fill="#E4E4E7"/>
<path d="M295.822 96.6186C295.822 99.9127 294.724 102.522 292.527 104.446C290.355 106.343 287.243 107.437 283.188 107.726V115H277.577V107.726C273.523 107.437 270.397 106.356 268.2 104.485C266.028 102.588 264.943 99.9655 264.943 96.6186C264.943 93.3244 266.015 90.7682 268.16 88.9498C270.331 87.1314 273.47 86.0773 277.577 85.7874V78H283.188V85.7874C287.243 86.0773 290.355 87.1446 292.527 88.9893C294.724 90.834 295.822 93.3771 295.822 96.6186ZM270.868 96.6186C270.868 98.516 271.404 99.9786 272.476 101.006C273.549 102.034 275.249 102.68 277.577 102.943V90.5705C275.249 90.8077 273.549 91.427 272.476 92.4284C271.404 93.4035 270.868 94.8002 270.868 96.6186ZM283.188 102.943C285.516 102.68 287.216 102.034 288.289 101.006C289.388 99.9786 289.937 98.516 289.937 96.6186C289.937 94.8002 289.388 93.4035 288.289 92.4284C287.216 91.427 285.516 90.8077 283.188 90.5705V102.943Z" fill="#E4E4E7"/>
<path d="M329.12 96.6186C329.12 99.9127 328.022 102.522 325.824 104.446C323.653 106.343 320.54 107.437 316.486 107.726V115H310.875V107.726C306.821 107.437 303.695 106.356 301.497 104.485C299.326 102.588 298.241 99.9655 298.241 96.6186C298.241 93.3244 299.313 90.7682 301.458 88.9498C303.629 87.1314 306.768 86.0773 310.875 85.7874V78H316.486V85.7874C320.54 86.0773 323.653 87.1446 325.824 88.9893C328.022 90.834 329.12 93.3771 329.12 96.6186ZM304.166 96.6186C304.166 98.516 304.702 99.9786 305.774 101.006C306.847 102.034 308.547 102.68 310.875 102.943V90.5705C308.547 90.8077 306.847 91.427 305.774 92.4284C304.702 93.4035 304.166 94.8002 304.166 96.6186ZM316.486 102.943C318.814 102.68 320.514 102.034 321.587 101.006C322.685 99.9786 323.235 98.516 323.235 96.6186C323.235 94.8002 322.685 93.4035 321.587 92.4284C320.514 91.427 318.814 90.8077 316.486 90.5705V102.943Z" fill="#E4E4E7"/>
<path d="M335.194 107.647C334.122 107.647 333.219 107.278 332.487 106.541C331.754 105.803 331.388 104.88 331.388 103.774C331.388 102.64 331.754 101.731 332.487 101.046C333.219 100.334 334.122 99.9786 335.194 99.9786C336.267 99.9786 337.169 100.334 337.901 101.046C338.634 101.731 339 102.64 339 103.774C339 104.88 338.634 105.803 337.901 106.541C337.169 107.278 336.267 107.647 335.194 107.647Z" fill="#E4E4E7"/>
</svg>
