<svg width="351" height="108" viewBox="0 0 351 108" fill="none" xmlns="http://www.w3.org/2000/svg">
<path d="M15.0101 6C17.9077 6 20.4346 6.56667 22.5909 7.7C24.7473 8.83333 26.4151 10.45 27.5943 12.55C28.7736 14.65 29.3632 17.1 29.3632 19.9C29.3632 22.6333 28.8072 25.05 27.6954 27.15C26.5835 29.2167 25.0168 30.8333 22.9953 32C20.9737 33.1333 18.6489 33.7 16.0209 33.7C12.5505 33.7 9.83826 32.6167 7.88409 30.45V43H0V19.95C0 17.1833 0.623315 14.75 1.86994 12.65C3.11657 10.55 4.86859 8.91667 7.126 7.75C9.38341 6.58333 12.0114 6 15.0101 6ZM14.6563 27.3C16.7116 27.3 18.3794 26.6167 19.6597 25.25C20.94 23.8833 21.5802 22.1 21.5802 19.9C21.5802 17.6667 20.94 15.8667 19.6597 14.5C18.3794 13.1 16.7116 12.4 14.6563 12.4C12.6011 12.4 10.9333 13.0833 9.65295 14.45C8.40633 15.8167 7.78301 17.6167 7.78301 19.85C7.78301 22.0833 8.40633 23.8833 9.65295 25.25C10.8996 26.6167 12.5674 27.3 14.6563 27.3Z" fill="#FAFAFA"/>
<path d="M62.3612 6.4V33.3H54.8309V30.2C52.8767 32.5333 50.0465 33.7 46.3403 33.7C43.7797 33.7 41.4549 33.1333 39.366 32C37.3107 30.8667 35.6935 29.25 34.5142 27.15C33.335 25.05 32.7453 22.6167 32.7453 19.85C32.7453 17.0833 33.335 14.65 34.5142 12.55C35.6935 10.45 37.3107 8.83333 39.366 7.7C41.4549 6.56667 43.7797 6 46.3403 6C49.8107 6 52.5229 7.08333 54.4771 9.25V6.4H62.3612ZM47.7049 27.3C49.6928 27.3 51.3437 26.6333 52.6577 25.3C53.9717 23.9333 54.6287 22.1167 54.6287 19.85C54.6287 17.5833 53.9717 15.7833 52.6577 14.45C51.3437 13.0833 49.6928 12.4 47.7049 12.4C45.6833 12.4 44.0155 13.0833 42.7015 14.45C41.3875 15.7833 40.7305 17.5833 40.7305 19.85C40.7305 22.1167 41.3875 23.9333 42.7015 25.3C44.0155 26.6333 45.6833 27.3 47.7049 27.3Z" fill="#FAFAFA"/>
<path d="M82.7502 33.7C79.8526 33.7 77.2414 33.1167 74.9166 31.95C72.6255 30.75 70.8229 29.1 69.5089 27C68.2286 24.9 67.5884 22.5167 67.5884 19.85C67.5884 17.1833 68.2286 14.8 69.5089 12.7C70.8229 10.6 72.6255 8.96667 74.9166 7.8C77.2414 6.6 79.8526 6 82.7502 6C85.614 6 88.1073 6.6 90.2299 7.8C92.3863 8.96667 93.953 10.65 94.9301 12.85L88.8148 16.1C87.3997 13.6333 85.3613 12.4 82.6996 12.4C80.6444 12.4 78.9429 13.0667 77.5952 14.4C76.2475 15.7333 75.5736 17.55 75.5736 19.85C75.5736 22.15 76.2475 23.9667 77.5952 25.3C78.9429 26.6333 80.6444 27.3 82.6996 27.3C85.395 27.3 87.4334 26.0667 88.8148 23.6L94.9301 26.9C93.953 29.0333 92.3863 30.7 90.2299 31.9C88.1073 33.1 85.614 33.7 82.7502 33.7Z" fill="#FAFAFA"/>
<path d="M126.759 6.4V33.3H118.875V12.8H107.555V33.3H99.721V6.4H126.759Z" fill="#FAFAFA"/>
<path d="M161.155 6.4V33.3H153.624V30.15C152.614 31.3167 151.367 32.2 149.885 32.8C148.436 33.4 146.886 33.7 145.235 33.7C141.664 33.7 138.816 32.6833 136.694 30.65C134.605 28.6167 133.56 25.6 133.56 21.6V6.4H141.445V20.45C141.445 24.7833 143.281 26.95 146.953 26.95C148.874 26.95 150.407 26.35 151.552 25.15C152.698 23.9167 153.271 22.1 153.271 19.7V6.4H161.155Z" fill="#FAFAFA"/>
<path d="M181.607 33.7C178.71 33.7 176.099 33.1167 173.774 31.95C171.483 30.75 169.68 29.1 168.366 27C167.086 24.9 166.446 22.5167 166.446 19.85C166.446 17.1833 167.086 14.8 168.366 12.7C169.68 10.6 171.483 8.96667 173.774 7.8C176.099 6.6 178.71 6 181.607 6C184.471 6 186.964 6.6 189.087 7.8C191.243 8.96667 192.81 10.65 193.787 12.85L187.672 16.1C186.257 13.6333 184.218 12.4 181.557 12.4C179.501 12.4 177.8 13.0667 176.452 14.4C175.105 15.7333 174.431 17.55 174.431 19.85C174.431 22.15 175.105 23.9667 176.452 25.3C177.8 26.6333 179.501 27.3 181.557 27.3C184.252 27.3 186.291 26.0667 187.672 23.6L193.787 26.9C192.81 29.0333 191.243 30.7 189.087 31.9C186.964 33.1 184.471 33.7 181.607 33.7Z" fill="#FAFAFA"/>
<path d="M225.675 6.4V33.3H218.145V30.2C216.191 32.5333 213.361 33.7 209.654 33.7C207.094 33.7 204.769 33.1333 202.68 32C200.625 30.8667 199.008 29.25 197.828 27.15C196.649 25.05 196.059 22.6167 196.059 19.85C196.059 17.0833 196.649 14.65 197.828 12.55C199.008 10.45 200.625 8.83333 202.68 7.7C204.769 6.56667 207.094 6 209.654 6C213.125 6 215.837 7.08333 217.791 9.25V6.4H225.675ZM211.019 27.3C213.007 27.3 214.658 26.6333 215.972 25.3C217.286 23.9333 217.943 22.1167 217.943 19.85C217.943 17.5833 217.286 15.7833 215.972 14.45C214.658 13.0833 213.007 12.4 211.019 12.4C208.997 12.4 207.33 13.0833 206.016 14.45C204.702 15.7833 204.045 17.5833 204.045 19.85C204.045 22.1167 204.702 23.9333 206.016 25.3C207.33 26.6333 208.997 27.3 211.019 27.3Z" fill="#FAFAFA"/>
<path d="M233.126 6.4H240.96V16.9H252.786V6.4H260.67V33.3H252.786V23.25H240.96V33.3H233.126V6.4Z" fill="#FAFAFA"/>
<path d="M295.054 6.4V33.3H287.523V30.15C286.512 31.3167 285.266 32.2 283.783 32.8C282.335 33.4 280.785 33.7 279.134 33.7C275.562 33.7 272.715 32.6833 270.593 30.65C268.504 28.6167 267.459 25.6 267.459 21.6V6.4H275.343V20.45C275.343 24.7833 277.18 26.95 280.852 26.95C282.773 26.95 284.306 26.35 285.451 25.15C286.597 23.9167 287.169 22.1 287.169 19.7V6.4H295.054Z" fill="#FAFAFA"/>
<path d="M316.113 27.45C317.528 27.45 318.774 27.25 319.852 26.85C320.964 26.4167 321.992 25.75 322.935 24.85L327.13 29.35C324.569 32.25 320.829 33.7 315.91 33.7C312.844 33.7 310.132 33.1167 307.774 31.95C305.415 30.75 303.596 29.1 302.315 27C301.035 24.9 300.395 22.5167 300.395 19.85C300.395 17.2167 301.018 14.85 302.265 12.75C303.545 10.6167 305.28 8.96667 307.47 7.8C309.694 6.6 312.187 6 314.95 6C317.544 6 319.903 6.55 322.026 7.65C324.148 8.71667 325.833 10.2833 327.079 12.35C328.36 14.3833 329 16.8 329 19.6L308.885 23.45C309.458 24.7833 310.351 25.7833 311.564 26.45C312.811 27.1167 314.327 27.45 316.113 27.45ZM314.95 11.9C312.962 11.9 311.345 12.5333 310.098 13.8C308.852 15.0667 308.195 16.8167 308.127 19.05L321.369 16.5C320.998 15.1 320.24 13.9833 319.094 13.15C317.949 12.3167 316.567 11.9 314.95 11.9Z" fill="#FAFAFA"/>
<path d="M26.5124 91.9V75.8L18.382 89.3H15.049L7.12049 75.75V91.9H0V65H8.23148L16.9175 80.55L26.1589 65H33.5319L33.6329 91.9H26.5124Z" fill="#FAFAFA"/>
<path d="M62.9446 71.4H49.0066V91.9H41.1791V65H62.9446V71.4Z" fill="#FAFAFA"/>
<path d="M91.2048 65V91.9H83.3268V71.4H74.7418L74.4893 76.15C74.3547 79.6833 74.018 82.6167 73.4793 84.95C72.9407 87.2833 72.0653 89.1167 70.8533 90.45C69.6413 91.7833 67.958 92.45 65.8033 92.45C64.6587 92.45 63.2952 92.25 61.7128 91.85L62.1168 85.45C62.6555 85.5167 63.0427 85.55 63.2783 85.55C64.4567 85.55 65.332 85.1333 65.9043 84.3C66.5103 83.4333 66.9143 82.35 67.1163 81.05C67.3183 79.7167 67.4698 77.9667 67.5708 75.8L67.9748 65H91.2048Z" fill="#FAFAFA"/>
<path d="M126 65V87.4C126 92.3333 124.738 96 122.213 98.4C119.688 100.8 116.018 102 111.204 102C108.645 102 106.221 101.683 103.932 101.05C101.676 100.417 99.7737 99.5 98.2251 98.3L101.356 92.7C102.501 93.6333 103.898 94.3667 105.548 94.9C107.197 95.4333 108.864 95.7 110.547 95.7C113.173 95.7 115.092 95.1 116.304 93.9C117.516 92.7 118.122 90.8667 118.122 88.4V87.5C117.112 88.5 115.917 89.2667 114.537 89.8C113.156 90.3333 111.675 90.6 110.093 90.6C106.524 90.6 103.696 89.6 101.609 87.6C99.5212 85.5667 98.4776 82.5333 98.4776 78.5V65H106.356V77.35C106.356 81.7167 108.19 83.9 111.86 83.9C113.745 83.9 115.26 83.3 116.405 82.1C117.55 80.8667 118.122 79.05 118.122 76.65V65H126Z" fill="#FAFAFA"/>
<rect x="136" y="47" width="215" height="61" rx="26" fill="#3F3F46"/>
<path d="M174.756 70.568V89.792H170.472V87.344C169.752 88.208 168.852 88.88 167.772 89.36C166.692 89.816 165.528 90.044 164.28 90.044C161.712 90.044 159.684 89.336 158.196 87.92C156.732 86.48 156 84.356 156 81.548V70.568H160.5V80.936C160.5 82.664 160.884 83.96 161.652 84.824C162.444 85.664 163.56 86.084 165 86.084C166.608 86.084 167.88 85.592 168.816 84.608C169.776 83.6 170.256 82.16 170.256 80.288V70.568H174.756Z" fill="#E4E4E7"/>
<path d="M191.556 70.352C193.98 70.352 195.924 71.06 197.388 72.476C198.852 73.892 199.584 75.992 199.584 78.776V89.792H195.084V79.352C195.084 77.672 194.688 76.412 193.896 75.572C193.104 74.708 191.976 74.276 190.512 74.276C188.856 74.276 187.548 74.78 186.588 75.788C185.628 76.772 185.148 78.2 185.148 80.072V89.792H180.648V70.568H184.932V73.052C185.676 72.164 186.612 71.492 187.74 71.036C188.868 70.58 190.14 70.352 191.556 70.352Z" fill="#E4E4E7"/>
<path d="M214.108 90.044C212.164 90.044 210.412 89.624 208.852 88.784C207.292 87.944 206.068 86.78 205.18 85.292C204.316 83.78 203.884 82.076 203.884 80.18C203.884 78.284 204.316 76.592 205.18 75.104C206.068 73.616 207.292 72.452 208.852 71.612C210.412 70.772 212.164 70.352 214.108 70.352C216.076 70.352 217.84 70.772 219.4 71.612C220.96 72.452 222.172 73.616 223.036 75.104C223.924 76.592 224.368 78.284 224.368 80.18C224.368 82.076 223.924 83.78 223.036 85.292C222.172 86.78 220.96 87.944 219.4 88.784C217.84 89.624 216.076 90.044 214.108 90.044ZM214.108 86.192C215.764 86.192 217.132 85.64 218.212 84.536C219.292 83.432 219.832 81.98 219.832 80.18C219.832 78.38 219.292 76.928 218.212 75.824C217.132 74.72 215.764 74.168 214.108 74.168C212.452 74.168 211.084 74.72 210.004 75.824C208.948 76.928 208.42 78.38 208.42 80.18C208.42 81.98 208.948 83.432 210.004 84.536C211.084 85.64 212.452 86.192 214.108 86.192Z" fill="#E4E4E7"/>
<path d="M235.907 66.464C234.011 66.464 233.063 67.496 233.063 69.56V70.712H238.355V74.312H233.171V89.792H228.671V69.488C228.671 67.448 229.271 65.828 230.471 64.628C231.671 63.428 233.375 62.828 235.583 62.828C237.287 62.828 238.631 63.176 239.615 63.872L238.355 67.256C237.635 66.728 236.819 66.464 235.907 66.464Z" fill="#E4E4E7"/>
<path d="M248.599 66.464C246.703 66.464 245.755 67.496 245.755 69.56V70.712H251.047V74.312H245.863V89.792H241.363V69.488C241.363 67.448 241.963 65.828 243.163 64.628C244.363 63.428 246.067 62.828 248.275 62.828C249.979 62.828 251.323 63.176 252.307 63.872L251.047 67.256C250.327 66.728 249.511 66.464 248.599 66.464ZM256.951 70.568H261.451V89.792H256.951V70.568ZM259.219 67.4C258.403 67.4 257.719 67.148 257.167 66.644C256.615 66.116 256.339 65.468 256.339 64.7C256.339 63.932 256.615 63.296 257.167 62.792C257.719 62.264 258.403 62 259.219 62C260.035 62 260.719 62.252 261.271 62.756C261.823 63.236 262.099 63.848 262.099 64.592C262.099 65.384 261.823 66.056 261.271 66.608C260.743 67.136 260.059 67.4 259.219 67.4Z" fill="#E4E4E7"/>
<path d="M276.163 90.044C274.171 90.044 272.383 89.624 270.799 88.784C269.215 87.944 267.979 86.78 267.091 85.292C266.203 83.78 265.759 82.076 265.759 80.18C265.759 78.284 266.203 76.592 267.091 75.104C267.979 73.616 269.203 72.452 270.763 71.612C272.347 70.772 274.147 70.352 276.163 70.352C278.059 70.352 279.715 70.736 281.131 71.504C282.571 72.272 283.651 73.376 284.371 74.816L280.915 76.832C280.363 75.944 279.667 75.284 278.827 74.852C278.011 74.396 277.111 74.168 276.127 74.168C274.447 74.168 273.055 74.72 271.951 75.824C270.847 76.904 270.295 78.356 270.295 80.18C270.295 82.004 270.835 83.468 271.915 84.572C273.019 85.652 274.423 86.192 276.127 86.192C277.111 86.192 278.011 85.976 278.827 85.544C279.667 85.088 280.363 84.416 280.915 83.528L284.371 85.544C283.627 86.984 282.535 88.1 281.095 88.892C279.679 89.66 278.035 90.044 276.163 90.044Z" fill="#E4E4E7"/>
<path d="M288.261 70.568H292.761V89.792H288.261V70.568ZM290.529 67.4C289.713 67.4 289.029 67.148 288.477 66.644C287.925 66.116 287.649 65.468 287.649 64.7C287.649 63.932 287.925 63.296 288.477 62.792C289.029 62.264 289.713 62 290.529 62C291.345 62 292.029 62.252 292.581 62.756C293.133 63.236 293.409 63.848 293.409 64.592C293.409 65.384 293.133 66.056 292.581 66.608C292.053 67.136 291.369 67.4 290.529 67.4Z" fill="#E4E4E7"/>
<path d="M317.459 70.568V89.792H313.175V87.308C312.431 88.22 311.507 88.904 310.403 89.36C309.323 89.816 308.123 90.044 306.803 90.044C304.931 90.044 303.251 89.636 301.763 88.82C300.299 88.004 299.147 86.852 298.307 85.364C297.491 83.876 297.083 82.148 297.083 80.18C297.083 78.212 297.491 76.496 298.307 75.032C299.147 73.544 300.299 72.392 301.763 71.576C303.251 70.76 304.931 70.352 306.803 70.352C308.051 70.352 309.191 70.568 310.223 71C311.279 71.432 312.191 72.068 312.959 72.908V70.568H317.459ZM307.307 86.192C308.963 86.192 310.331 85.64 311.411 84.536C312.491 83.432 313.031 81.98 313.031 80.18C313.031 78.38 312.491 76.928 311.411 75.824C310.331 74.72 308.963 74.168 307.307 74.168C305.651 74.168 304.283 74.72 303.203 75.824C302.147 76.928 301.619 78.38 301.619 80.18C301.619 81.98 302.147 83.432 303.203 84.536C304.283 85.64 305.651 86.192 307.307 86.192Z" fill="#E4E4E7"/>
<path d="M329.683 90.044C327.691 90.044 326.131 89.504 325.003 88.424C323.899 87.32 323.347 85.772 323.347 83.78V63.08H327.847V83.456C327.847 85.376 328.747 86.336 330.547 86.336C331.147 86.336 331.687 86.216 332.167 85.976L332.383 89.576C331.543 89.888 330.643 90.044 329.683 90.044Z" fill="#E4E4E7"/>
</svg>
