<svg width="351" height="108" viewBox="0 0 351 108" fill="none" xmlns="http://www.w3.org/2000/svg">
<path d="M331.981 33.4764C335.081 33.4764 337.664 32.443 339.731 30.3762L343.259 34.4919C342.011 36.0241 340.408 37.1822 338.448 37.9662C336.488 38.7501 334.279 39.1421 331.82 39.1421C328.684 39.1421 325.923 38.5185 323.535 37.2713C321.148 36.0241 319.295 34.2959 317.977 32.0866C316.694 29.8417 316.052 27.3118 316.052 24.4967C316.052 21.7173 316.676 19.223 317.923 17.0137C319.206 14.7688 320.952 13.0228 323.161 11.7756C325.406 10.5284 327.936 9.90485 330.751 9.90485C333.424 9.90485 335.847 10.4928 338.02 11.6687C340.23 12.809 341.976 14.4659 343.259 16.6396C344.541 18.7776 345.183 21.2897 345.183 24.176L323.322 28.452C323.999 30.0912 325.085 31.3383 326.582 32.1935C328.079 33.0487 329.878 33.4764 331.981 33.4764ZM330.751 15.2499C328.292 15.2499 326.297 16.0516 324.765 17.6551C323.268 19.2586 322.52 21.4144 322.52 24.1226V24.176L338.662 21.0759C338.199 19.3299 337.254 17.9224 335.829 16.8534C334.439 15.7844 332.747 15.2499 330.751 15.2499Z" fill="#52525C"/>
<path d="M309.488 10.2255V38.7678H303.128V35.1332C302.059 36.416 300.723 37.4138 299.119 38.1264C297.551 38.8035 295.841 39.142 293.988 39.142C290.175 39.142 287.164 38.0908 284.955 35.9884C282.746 33.8504 281.641 30.6969 281.641 26.5278V10.2255H288.322V25.6191C288.322 28.1847 288.892 30.1089 290.033 31.3917C291.209 32.6389 292.883 33.2625 295.057 33.2625C297.409 33.2625 299.279 32.532 300.669 31.071C302.095 29.5744 302.807 27.4364 302.807 24.657V10.2255H309.488Z" fill="#52525C"/>
<path d="M245.748 10.2255H252.429V21.8242H266.807V10.2255H273.489V38.7678H266.807V27.4899H252.429V38.7678H245.748V10.2255Z" fill="#52525C"/>
<path d="M236.899 10.2255V38.7679H230.539V35.0799C229.434 36.4339 228.062 37.4495 226.423 38.1265C224.82 38.8035 223.038 39.1421 221.078 39.1421C218.299 39.1421 215.805 38.5363 213.595 37.3248C211.422 36.1132 209.711 34.4028 208.464 32.1935C207.252 29.9843 206.647 27.4187 206.647 24.4967C206.647 21.5748 207.252 19.027 208.464 16.8534C209.711 14.6441 211.422 12.9337 213.595 11.7221C215.805 10.5106 218.299 9.90485 221.078 9.90485C222.931 9.90485 224.624 10.2255 226.156 10.8669C227.724 11.5084 229.078 12.4526 230.218 13.6998V10.2255H236.899ZM221.827 33.4229C224.285 33.4229 226.316 32.6033 227.92 30.9642C229.523 29.3251 230.325 27.1692 230.325 24.4967C230.325 21.8242 229.523 19.6684 227.92 18.0293C226.316 16.3901 224.285 15.5706 221.827 15.5706C219.368 15.5706 217.337 16.3901 215.733 18.0293C214.165 19.6684 213.381 21.8242 213.381 24.4967C213.381 27.1692 214.165 29.3251 215.733 30.9642C217.337 32.6033 219.368 33.4229 221.827 33.4229Z" fill="#52525C"/>
<path d="M191.454 39.1421C188.496 39.1421 185.842 38.5185 183.49 37.2713C181.138 36.0241 179.303 34.2959 177.985 32.0866C176.666 29.8417 176.007 27.3118 176.007 24.4967C176.007 21.6817 176.666 19.1695 177.985 16.9603C179.303 14.751 181.12 13.0228 183.436 11.7756C185.788 10.5284 188.461 9.90485 191.454 9.90485C194.269 9.90485 196.728 10.475 198.83 11.6153C200.968 12.7555 202.572 14.3947 203.641 16.5327L198.509 19.5259C197.69 18.2074 196.656 17.2275 195.409 16.5861C194.198 15.9091 192.861 15.5706 191.4 15.5706C188.906 15.5706 186.839 16.3901 185.2 18.0293C183.561 19.6328 182.742 21.7886 182.742 24.4967C182.742 27.2049 183.543 29.3785 185.147 31.0176C186.786 32.6211 188.871 33.4229 191.4 33.4229C192.861 33.4229 194.198 33.1022 195.409 32.4608C196.656 31.7838 197.69 30.786 198.509 29.4676L203.641 32.4608C202.536 34.5988 200.915 36.2558 198.777 37.4317C196.674 38.5719 194.233 39.1421 191.454 39.1421Z" fill="#52525C"/>
<path d="M169.443 10.2255V38.7678H163.082V35.1332C162.013 36.416 160.677 37.4138 159.074 38.1264C157.506 38.8035 155.795 39.142 153.942 39.142C150.13 39.142 147.119 38.0908 144.909 35.9884C142.7 33.8504 141.595 30.6969 141.595 26.5278V10.2255H148.277V25.6191C148.277 28.1847 148.847 30.1089 149.987 31.3917C151.163 32.6389 152.838 33.2625 155.011 33.2625C157.363 33.2625 159.234 32.532 160.624 31.071C162.049 29.5744 162.762 27.4364 162.762 24.657V10.2255H169.443Z" fill="#52525C"/>
<path d="M133.382 10.2255V38.7678H126.754V15.8912H112.697V38.7678H106.016V10.2255H133.382Z" fill="#52525C"/>
<path d="M87.9466 39.1421C84.989 39.1421 82.3343 38.5185 79.9825 37.2713C77.6307 36.0241 75.7956 34.2959 74.4771 32.0866C73.1587 29.8417 72.4995 27.3118 72.4995 24.4967C72.4995 21.6817 73.1587 19.1695 74.4771 16.9603C75.7956 14.751 77.6129 13.0228 79.929 11.7756C82.2809 10.5284 84.9533 9.90485 87.9466 9.90485C90.7616 9.90485 93.2203 10.475 95.3227 11.6153C97.4607 12.7555 99.0642 14.3947 100.133 16.5327L95.002 19.5259C94.1824 18.2074 93.149 17.2275 91.9019 16.5861C90.6903 15.9091 89.3541 15.5706 87.8931 15.5706C85.3988 15.5706 83.332 16.3901 81.6929 18.0293C80.0538 19.6328 79.2342 21.7886 79.2342 24.4967C79.2342 27.2049 80.0359 29.3785 81.6394 31.0176C83.2786 32.6211 85.3631 33.4229 87.8931 33.4229C89.3541 33.4229 90.6903 33.1022 91.9019 32.4608C93.149 31.7838 94.1824 30.786 95.002 29.4676L100.133 32.4608C99.0285 34.5988 97.4072 36.2558 95.2692 37.4317C93.1669 38.5719 90.726 39.1421 87.9466 39.1421Z" fill="#52525C"/>
<path d="M66.1097 10.2255V38.7679H59.7491V35.0799C58.6445 36.4339 57.2726 37.4495 55.6335 38.1265C54.03 38.8035 52.2483 39.1421 50.2885 39.1421C47.5091 39.1421 45.0147 38.5363 42.8055 37.3248C40.6318 36.1132 38.9214 34.4028 37.6742 32.1935C36.4627 29.9843 35.8569 27.4187 35.8569 24.4967C35.8569 21.5748 36.4627 19.027 37.6742 16.8534C38.9214 14.6441 40.6318 12.9337 42.8055 11.7221C45.0147 10.5106 47.5091 9.90485 50.2885 9.90485C52.1414 9.90485 53.834 10.2255 55.3662 10.8669C56.9341 11.5084 58.2882 12.4526 59.4284 13.6998V10.2255H66.1097ZM51.0368 33.4229C53.4955 33.4229 55.5266 32.6033 57.1301 30.9642C58.7336 29.3251 59.5353 27.1692 59.5353 24.4967C59.5353 21.8242 58.7336 19.6684 57.1301 18.0293C55.5266 16.3901 53.4955 15.5706 51.0368 15.5706C48.5781 15.5706 46.547 16.3901 44.9435 18.0293C43.3756 19.6684 42.5917 21.8242 42.5917 24.4967C42.5917 27.1692 43.3756 29.3251 44.9435 30.9642C46.547 32.6033 48.5781 33.4229 51.0368 33.4229Z" fill="#52525C"/>
<path d="M16.8279 9.90485C19.7854 9.90485 22.3689 10.5106 24.5781 11.7221C26.823 12.9337 28.5513 14.6441 29.7628 16.8534C31.01 19.0626 31.6336 21.6282 31.6336 24.5502C31.6336 27.4365 31.0456 29.9843 29.8697 32.1935C28.6938 34.4028 27.0368 36.1132 24.8988 37.3248C22.7965 38.5363 20.3556 39.1421 17.5762 39.1421C13.6209 39.1421 10.5208 37.8771 8.27585 35.3471V49.1372H1.54114V24.6036C1.54114 21.7173 2.18254 19.1695 3.46534 16.9603C4.74815 14.7154 6.52982 12.9871 8.81035 11.7756C11.1265 10.5284 13.799 9.90485 16.8279 9.90485ZM16.5606 33.4763C19.055 33.4763 21.0861 32.6568 22.6539 31.0176C24.2218 29.3429 25.0057 27.187 25.0057 24.5502C25.0057 21.9133 24.2218 19.7575 22.6539 18.0827C21.0861 16.4079 19.055 15.5706 16.5606 15.5706C14.0306 15.5706 11.9995 16.3901 10.4673 18.0293C8.93507 19.6684 8.16895 21.8242 8.16895 24.4967C8.16895 27.1692 8.93507 29.3429 10.4673 31.0176C12.0352 32.6568 14.0663 33.4763 16.5606 33.4763Z" fill="#52525C"/>
<path d="M160 65.0473V93.4853H154.035V84.9113H146.527L140.722 93.4853H133.586L140.296 84.006C138.237 83.2959 136.657 82.2131 135.556 80.7574C134.491 79.2663 133.959 77.4379 133.959 75.2722C133.959 72.0059 135.112 69.4852 137.42 67.7101C139.728 65.9349 142.905 65.0473 146.953 65.0473H160ZM147.166 70.6391C142.87 70.6391 140.722 72.2545 140.722 75.4852C140.722 78.6805 142.799 80.2781 146.953 80.2781H154.035V70.6391H147.166Z" fill="#52525C"/>
<path d="M126.993 65.0473V93.4853H120.655V89.864C119.59 91.1421 118.259 92.1362 116.661 92.8462C115.099 93.5208 113.395 93.8581 111.549 93.8581C107.75 93.8581 104.75 92.8107 102.549 90.716C100.348 88.5859 99.2469 85.4438 99.2469 81.29V65.0473H105.904V80.3847C105.904 82.9409 106.472 84.858 107.608 86.1362C108.78 87.3788 110.448 88.0001 112.614 88.0001C114.957 88.0001 116.821 87.2722 118.206 85.8166C119.626 84.3255 120.336 82.1953 120.336 79.4261V65.0473H126.993Z" fill="#52525C"/>
<path d="M91.2234 65.0473V89.1717C91.2234 99.1835 86.3063 104.189 76.4719 104.189C73.8802 104.189 71.395 103.834 69.0163 103.124C66.6731 102.45 64.7382 101.456 63.2115 100.142L66.1938 95.1362C67.4009 96.1658 68.8743 96.9823 70.6139 97.5859C72.3536 98.1894 74.182 98.4912 76.0991 98.4912C79.0104 98.4912 81.1406 97.7812 82.4897 96.361C83.8743 94.9764 84.5666 92.8285 84.5666 89.9172V88.5859C83.5015 89.7575 82.2057 90.6628 80.679 91.3018C79.1524 91.9054 77.5015 92.2072 75.7264 92.2072C71.9275 92.2072 68.9275 91.1598 66.7263 89.0652C64.5606 86.9705 63.4778 83.8285 63.4778 79.6391V65.0473H70.1346V78.787C70.1346 81.3077 70.7027 83.2071 71.8388 84.4853C73.0104 85.7279 74.6613 86.3492 76.7915 86.3492C79.1702 86.3492 81.0518 85.6214 82.4364 84.1657C83.8566 82.7101 84.5666 80.5977 84.5666 77.8284V65.0473H91.2234Z" fill="#52525C"/>
<path d="M58.9524 70.6923H43.7749V93.4853H37.1181V65.0473H58.9524V70.6923Z" fill="#52525C"/>
<path d="M16.9882 66.432C19.6864 66.432 22.0652 67.0178 24.1243 68.1894C26.1835 69.3255 27.7811 70.9231 28.9172 72.9823C30.0888 75.0415 30.6746 77.4024 30.6746 80.0652C30.6746 82.7989 30.0356 85.2309 28.7575 87.3611C27.4794 89.4557 25.6865 91.0889 23.3788 92.2605C21.0711 93.4321 18.4438 94.0179 15.4971 94.0179C10.5622 94.0179 6.74558 92.3847 4.04735 89.1185C1.34912 85.8522 0 81.148 0 75.006C0 69.29 1.22486 64.7634 3.67457 61.4261C6.12428 58.0888 9.86985 55.8876 14.9113 54.8225L28.1184 52L29.077 57.9645L17.0947 60.4142C13.6509 61.1243 11.077 62.3314 9.37281 64.0355C7.66866 65.7397 6.67457 68.1361 6.39055 71.2249C7.66866 69.6983 9.21304 68.5267 11.0237 67.7101C12.8344 66.858 14.8225 66.432 16.9882 66.432ZM15.6568 88.6392C18.1066 88.6392 20.077 87.8581 21.5681 86.296C23.0947 84.6983 23.8581 82.6746 23.8581 80.2249C23.8581 77.7752 23.0947 75.8048 21.5681 74.3137C20.077 72.8225 18.1066 72.077 15.6568 72.077C13.1716 72.077 11.1657 72.8225 9.63908 74.3137C8.11245 75.8048 7.34913 77.7752 7.34913 80.2249C7.34913 82.7102 8.11245 84.7338 9.63908 86.296C11.2012 87.8581 13.2071 88.6392 15.6568 88.6392Z" fill="#52525C"/>
<rect x="177" y="54" width="174" height="50" rx="25" fill="#B8E6FE"/>
<path d="M207.206 73.027V88.7933H203.733V86.7856C203.149 87.4942 202.42 88.0454 201.544 88.439C200.668 88.813 199.725 89 198.713 89C196.631 89 194.987 88.4193 193.78 87.258C192.593 86.077 192 84.335 192 82.0321V73.027H195.648V81.5302C195.648 82.9474 195.96 84.0103 196.582 84.7189C197.224 85.4078 198.129 85.7522 199.297 85.7522C200.6 85.7522 201.632 85.3487 202.39 84.5417C203.169 83.715 203.558 82.534 203.558 80.9987V73.027H207.206Z" fill="#0069A8"/>
<path d="M220.826 72.8498C222.792 72.8498 224.368 73.4305 225.555 74.5918C226.742 75.7531 227.335 77.4754 227.335 79.7587V88.7933H223.687V80.2311C223.687 78.8532 223.366 77.8199 222.724 77.1309C222.081 76.4223 221.167 76.068 219.98 76.068C218.637 76.068 217.577 76.4814 216.799 77.3081C216.02 78.1151 215.631 79.2863 215.631 80.8216V88.7933H211.983V73.027H215.456V75.0642C216.059 74.3359 216.818 73.7848 217.733 73.4108C218.647 73.0368 219.678 72.8498 220.826 72.8498Z" fill="#0069A8"/>
<path d="M239.11 89C237.534 89 236.114 88.6555 234.849 87.9666C233.584 87.2777 232.592 86.3231 231.872 85.1027C231.172 83.8626 230.821 82.4651 230.821 80.9101C230.821 79.3552 231.172 77.9675 231.872 76.7471C232.592 75.5267 233.584 74.5721 234.849 73.8832C236.114 73.1943 237.534 72.8498 239.11 72.8498C240.706 72.8498 242.136 73.1943 243.401 73.8832C244.666 74.5721 245.648 75.5267 246.349 76.7471C247.069 77.9675 247.429 79.3552 247.429 80.9101C247.429 82.4651 247.069 83.8626 246.349 85.1027C245.648 86.3231 244.666 87.2777 243.401 87.9666C242.136 88.6555 240.706 89 239.11 89ZM239.11 85.8408C240.453 85.8408 241.562 85.3881 242.438 84.4827C243.313 83.5772 243.751 82.3864 243.751 80.9101C243.751 79.4339 243.313 78.243 242.438 77.3376C241.562 76.4322 240.453 75.9795 239.11 75.9795C237.768 75.9795 236.659 76.4322 235.783 77.3376C234.927 78.243 234.499 79.4339 234.499 80.9101C234.499 82.3864 234.927 83.5772 235.783 84.4827C236.659 85.3881 237.768 85.8408 239.11 85.8408Z" fill="#0069A8"/>
<path d="M256.784 69.6611C255.247 69.6611 254.478 70.5075 254.478 72.2003V73.1451H258.768V76.0976H254.566V88.7933H250.917V72.1412C250.917 70.4681 251.404 69.1395 252.377 68.1553C253.349 67.1712 254.731 66.6791 256.521 66.6791C257.903 66.6791 258.992 66.9645 259.79 67.5353L258.768 70.3107C258.185 69.8776 257.523 69.6611 256.784 69.6611Z" fill="#0069A8"/>
<path d="M267.073 69.6611C265.536 69.6611 264.767 70.5075 264.767 72.2003V73.1451H269.058V76.0976H264.855V88.7933H261.207V72.1412C261.207 70.4681 261.693 69.1395 262.666 68.1553C263.639 67.1712 265.02 66.6791 266.81 66.6791C268.192 66.6791 269.282 66.9645 270.079 67.5353L269.058 70.3107C268.474 69.8776 267.812 69.6611 267.073 69.6611ZM273.844 73.027H277.493V88.7933H273.844V73.027ZM275.683 70.4288C275.022 70.4288 274.467 70.2221 274.019 69.8087C273.572 69.3757 273.348 68.8442 273.348 68.2144C273.348 67.5845 273.572 67.0629 274.019 66.6495C274.467 66.2165 275.022 66 275.683 66C276.345 66 276.899 66.2067 277.347 66.62C277.794 67.0137 278.018 67.5156 278.018 68.1258C278.018 68.7754 277.794 69.3265 277.347 69.7792C276.919 70.2122 276.364 70.4288 275.683 70.4288Z" fill="#0069A8"/>
<path d="M289.421 89C287.806 89 286.356 88.6555 285.072 87.9666C283.788 87.2777 282.785 86.3231 282.066 85.1027C281.346 83.8626 280.986 82.4651 280.986 80.9101C280.986 79.3552 281.346 77.9675 282.066 76.7471C282.785 75.5267 283.778 74.5721 285.043 73.8832C286.327 73.1943 287.786 72.8498 289.421 72.8498C290.958 72.8498 292.3 73.1647 293.448 73.7946C294.616 74.4245 295.491 75.3299 296.075 76.5109L293.273 78.1643C292.826 77.436 292.261 76.8947 291.58 76.5404C290.919 76.1665 290.189 75.9795 289.391 75.9795C288.029 75.9795 286.901 76.4322 286.006 77.3376C285.111 78.2234 284.663 79.4142 284.663 80.9101C284.663 82.4061 285.101 83.6068 285.977 84.5122C286.872 85.3979 288.01 85.8408 289.391 85.8408C290.189 85.8408 290.919 85.6637 291.58 85.3094C292.261 84.9354 292.826 84.3843 293.273 83.656L296.075 85.3094C295.472 86.4904 294.587 87.4056 293.419 88.0552C292.271 88.6851 290.938 89 289.421 89Z" fill="#0069A8"/>
<path d="M299.229 73.027H302.877V88.7933H299.229V73.027ZM301.068 70.4288C300.406 70.4288 299.851 70.2221 299.404 69.8087C298.956 69.3757 298.733 68.8442 298.733 68.2144C298.733 67.5845 298.956 67.0629 299.404 66.6495C299.851 66.2165 300.406 66 301.068 66C301.729 66 302.284 66.2067 302.731 66.62C303.179 67.0137 303.402 67.5156 303.402 68.1258C303.402 68.7754 303.179 69.3265 302.731 69.7792C302.303 70.2122 301.749 70.4288 301.068 70.4288Z" fill="#0069A8"/>
<path d="M322.901 73.027V88.7933H319.428V86.7561C318.824 87.5041 318.075 88.065 317.18 88.439C316.305 88.813 315.332 89 314.262 89C312.744 89 311.382 88.6654 310.176 87.9961C308.989 87.3269 308.055 86.3821 307.374 85.1617C306.712 83.9414 306.381 82.5242 306.381 80.9101C306.381 79.2961 306.712 77.8887 307.374 76.6881C308.055 75.4677 308.989 74.5229 310.176 73.8537C311.382 73.1844 312.744 72.8498 314.262 72.8498C315.273 72.8498 316.198 73.027 317.034 73.3813C317.89 73.7356 318.63 74.2572 319.253 74.9461V73.027H322.901ZM314.67 85.8408C316.013 85.8408 317.122 85.3881 317.998 84.4827C318.873 83.5772 319.311 82.3864 319.311 80.9101C319.311 79.4339 318.873 78.243 317.998 77.3376C317.122 76.4322 316.013 75.9795 314.67 75.9795C313.328 75.9795 312.219 76.4322 311.343 77.3376C310.487 78.243 310.059 79.4339 310.059 80.9101C310.059 82.3864 310.487 83.5772 311.343 84.4827C312.219 85.3881 313.328 85.8408 314.67 85.8408Z" fill="#0069A8"/>
<path d="M332.811 89C331.196 89 329.931 88.5571 329.017 87.6714C328.122 86.7659 327.674 85.4964 327.674 83.8626V66.8858H331.323V83.5969C331.323 85.1716 332.052 85.9589 333.511 85.9589C333.998 85.9589 334.436 85.8605 334.825 85.6637L335 88.6162C334.319 88.8721 333.589 89 332.811 89Z" fill="#0069A8"/>
</svg>
